<svg width="24" height="24" viewBox="0 0 24 24" fill="none" xmlns="http://www.w3.org/2000/svg">
<path d="M2.99998 13.5182V10.319C2.99998 9.2121 2.99964 8.3331 3.0574 7.62606C3.11594 6.90998 3.23793 6.29941 3.52264 5.74051L3.70779 5.41004C4.16881 4.65834 4.83025 4.04658 5.62029 3.64403L5.8324 3.54443C6.33354 3.32944 6.87914 3.22883 7.50584 3.17762C8.21281 3.11987 9.09089 3.1202 10.1976 3.1202H10.7976C11.2383 3.1202 11.5955 3.47767 11.5957 3.91825C11.5957 4.35898 11.2384 4.7163 10.7976 4.7163H10.1976C9.06467 4.7163 8.2628 4.71665 7.63592 4.76786C7.17288 4.80569 6.84487 4.86946 6.58476 4.9624L6.34452 5.06551C5.81729 5.33416 5.37601 5.74278 5.06834 6.24443L4.94529 6.46474C4.7942 6.76128 4.69812 7.1386 4.64764 7.75614C4.59642 8.38312 4.59608 9.18576 4.59608 10.319V13.5182C4.59608 14.6515 4.59642 15.4542 4.64764 16.0812C4.69812 16.6986 4.79421 17.076 4.94529 17.3725L5.06834 17.5928C5.376 18.0944 5.81732 18.5032 6.34452 18.7717L6.58476 18.8749C6.84486 18.9678 7.17291 19.0304 7.63592 19.0682C8.26281 19.1195 9.06462 19.121 10.1976 19.121H13.398C14.531 19.121 15.3329 19.1195 15.9597 19.0682C16.577 19.0178 16.9547 18.9227 17.2512 18.7717L17.4726 18.6475C17.9739 18.34 18.383 17.8996 18.6516 17.3725L18.7547 17.1323C18.8477 16.8722 18.9102 16.5442 18.948 16.0812C18.9992 15.4542 18.9996 14.6515 18.9996 13.5182V12.9182C18.9997 12.4778 19.3572 12.1204 19.7976 12.1202C20.2382 12.1202 20.5955 12.4777 20.5957 12.9182V13.5182C20.5957 14.6252 20.5973 15.5041 20.5394 16.2112C20.4882 16.8378 20.3876 17.3836 20.1726 17.8847L20.073 18.0967C19.6706 18.8866 19.0584 19.5472 18.3071 20.0081L17.9766 20.1932C17.4175 20.4781 16.8062 20.6011 16.0898 20.6597C15.3829 20.7174 14.5047 20.717 13.398 20.717H10.1976C9.0909 20.717 8.2128 20.7174 7.50584 20.6597C6.87917 20.6084 6.33352 20.5079 5.8324 20.2928L5.62029 20.1932C4.8303 19.7908 4.1688 19.1789 3.70779 18.4272L3.52264 18.0967C3.23791 17.5379 3.11595 16.9273 3.0574 16.2112C2.99964 15.5041 2.99998 14.6252 2.99998 13.5182ZM15.9551 3.65458C17.1017 2.71944 18.7921 2.78627 19.8609 3.85496L20.0613 4.07646C20.9345 5.14686 20.9347 6.69172 20.0613 7.762L19.8609 7.98348L13.8047 14.041C13.1623 14.6833 12.3524 15.1282 11.4715 15.3276L11.0906 15.3979L8.90976 15.7085C8.66119 15.7439 8.40996 15.6611 8.23241 15.4835C8.05489 15.3059 7.97193 15.0547 8.00741 14.8062L8.31913 12.6264L8.38944 12.2444C8.58899 11.3636 9.03385 10.5535 9.67616 9.91122L15.7325 3.85496L15.9551 3.65458ZM18.7325 4.98348C18.2479 4.49906 17.4815 4.46813 16.9617 4.89208L16.8609 4.98348L10.8047 11.0409C10.376 11.4696 10.0788 12.0094 9.94569 12.5971L9.89881 12.8514L9.7371 13.9776L10.8644 13.817L11.1187 13.7702C11.7067 13.637 12.2474 13.3399 12.6762 12.9112L18.7325 6.85496L18.8238 6.75419C19.2195 6.26897 19.2198 5.56824 18.8238 5.08309L18.7325 4.98348Z" fill="white"/>
</svg>
