<svg width="24" height="24" viewBox="0 0 24 24" fill="none" xmlns="http://www.w3.org/2000/svg">
<path d="M11.8487 4C12.0807 4.00009 12.3036 4.08913 12.4659 4.24707L18.459 10.084C18.6154 10.2428 18.7011 10.4559 18.6993 10.6748C18.6974 10.8668 18.628 11.0528 18.503 11.2012L18.4463 11.2617C18.2856 11.4181 18.0667 11.5086 17.8379 11.5107C17.6092 11.5126 17.3885 11.4255 17.2246 11.2715L12.7188 6.88281V18.8574C12.7187 19.079 12.6281 19.2928 12.4659 19.4512C12.3033 19.6095 12.0805 19.6991 11.8487 19.6992C11.6173 19.699 11.396 19.6095 11.2334 19.4512C11.071 19.2928 10.9806 19.0793 10.9805 18.8574V6.88281L6.47464 11.2715C6.33132 11.4063 6.14343 11.4895 5.94534 11.5068L5.86038 11.5107C5.63189 11.5087 5.41386 11.4182 5.25296 11.2617C5.09241 11.1053 5.00211 10.8943 5.00003 10.6748C4.99813 10.4553 5.08306 10.2425 5.23929 10.084L11.2334 4.24707L11.2969 4.19141C11.4512 4.0685 11.646 4.0002 11.8487 4Z" fill="black"/>
</svg>
