<svg width="24" height="24" viewBox="0 0 24 24" fill="none" xmlns="http://www.w3.org/2000/svg">
<path d="M12.6325 2C13.6269 2 14.5471 2.52724 15.05 3.38515L16.0356 5.06562L16.1 5.14882C16.1734 5.2213 16.273 5.26394 16.379 5.26484L18.3172 5.28007L18.5024 5.28828C19.4242 5.35672 20.2581 5.87701 20.7231 6.68515L21.1168 7.3707L21.2047 7.53358C21.5829 8.30454 21.5863 9.20772 21.2142 9.98163L21.1286 10.1445L20.1652 11.8508C20.0964 11.9733 20.0962 12.1233 20.1652 12.2457L21.1286 13.9508L21.2142 14.1148C21.5862 14.8888 21.583 15.7919 21.2047 16.5629L21.1168 16.7258L20.7231 17.4113C20.2581 18.2193 19.4241 18.7397 18.5024 18.8082L18.3172 18.8152L16.379 18.8316C16.273 18.8325 16.1736 18.8751 16.1 18.9477L16.0356 19.0296L15.05 20.7113C14.5471 21.5691 13.6268 22.0965 12.6325 22.0965H11.8567C10.9246 22.0962 10.0577 21.6329 9.53871 20.8684L9.44027 20.7113L8.45472 19.0296C8.40106 18.9382 8.31413 18.8732 8.2145 18.8457L8.11137 18.8316L6.17308 18.8152C5.24069 18.8076 4.3773 18.3376 3.8645 17.5684L3.76722 17.4113L3.37348 16.7258C2.8799 15.8678 2.87516 14.8127 3.36176 13.9508L4.32387 12.2457L4.36371 12.1496C4.38102 12.0832 4.38096 12.0133 4.36371 11.9469L4.32387 11.8508L3.36176 10.1445C2.87534 9.28264 2.87998 8.22856 3.37348 7.3707L3.76722 6.68515L3.8645 6.52812C4.37728 5.75877 5.2406 5.28768 6.17308 5.28007L8.11137 5.26484L8.2145 5.25078C8.31425 5.22334 8.40105 5.15719 8.45472 5.06562L9.44027 3.38515L9.53871 3.22812C10.0577 2.46337 10.9245 2.00018 11.8567 2H12.6325ZM11.8567 3.59608C11.4825 3.59626 11.1328 3.7697 10.9063 4.06015L10.8172 4.19257L9.83168 5.87304C9.52043 6.40407 8.98469 6.75716 8.38442 6.841L8.12426 6.86094L6.18598 6.87616C5.81165 6.87922 5.46338 7.05606 5.2391 7.34844L5.15003 7.48086L4.75629 8.1664C4.54396 8.53564 4.5422 8.98962 4.7516 9.36054L5.71371 11.0656L5.82738 11.3C6.02094 11.7793 6.02076 12.3159 5.82738 12.7953L5.71371 13.0308L4.7516 14.7359C4.54223 15.1068 4.54388 15.5608 4.75629 15.93L5.15003 16.6144L5.2391 16.7469C5.46336 17.0396 5.81144 17.2161 6.18598 17.2191L8.12426 17.2355L8.38442 17.2542C8.98474 17.3381 9.52041 17.6924 9.83168 18.2235L10.8172 19.9038L10.9063 20.0351C11.1328 20.3259 11.4823 20.5002 11.8567 20.5004H12.6325C13.0604 20.5004 13.4566 20.2731 13.6731 19.9038L14.6587 18.2235L14.8051 18.0066C15.1771 17.5282 15.7507 17.2406 16.366 17.2355L18.3043 17.2191L18.4626 17.2074C18.8277 17.1561 19.1535 16.9392 19.3402 16.6144L19.7341 15.93L19.8032 15.7883C19.9232 15.4974 19.9251 15.1708 19.8079 14.8788L19.7388 14.7359L18.7754 13.0308C18.4314 12.4212 18.4314 11.6752 18.7754 11.0656L19.7388 9.36054L19.8079 9.21757C19.9252 8.92572 19.9231 8.59905 19.8032 8.3082L19.7341 8.1664L19.3402 7.48086C19.1534 7.1561 18.8278 6.93921 18.4626 6.88789L18.3043 6.87616L16.366 6.86094C15.7507 6.85591 15.1771 6.56814 14.8051 6.08984L14.6587 5.87304L13.6731 4.19257C13.4566 3.82329 13.0605 3.59608 12.6325 3.59608H11.8567ZM14.1477 12.0476C14.1475 10.9976 13.2958 10.146 12.2457 10.1457C11.1954 10.1457 10.3428 10.9974 10.3426 12.0476C10.3426 13.098 11.1953 13.9496 12.2457 13.9496C13.296 13.9493 14.1477 13.0979 14.1477 12.0476ZM15.7426 12.0476C15.7426 13.9793 14.1774 15.5454 12.2457 15.5457C10.3138 15.5457 8.74769 13.9796 8.74769 12.0476C8.74791 10.1159 10.314 8.5496 12.2457 8.5496C14.1772 8.54991 15.7424 10.1161 15.7426 12.0476Z" fill="white"/>
</svg>
