<svg width="24" height="24" viewBox="0 0 24 24" fill="none" xmlns="http://www.w3.org/2000/svg">
<path d="M7.99998 4.60197C7.45827 4.60699 7.01508 4.6167 6.63592 4.64768C6.17282 4.68551 5.84488 4.74925 5.58476 4.84221L5.34452 4.94533C4.8172 5.21401 4.37601 5.62248 4.06834 6.12424L3.94529 6.34455C3.79419 6.64113 3.6981 7.01831 3.64764 7.63595C3.59643 8.26284 3.59608 9.06468 3.59608 10.1977V13.3946C3.59608 14.5275 3.59643 15.3293 3.64764 15.9562C3.6981 16.574 3.79419 16.9511 3.94529 17.2477L4.06834 17.468C4.37601 17.9697 4.81722 18.3782 5.34452 18.6469L5.58476 18.7501C5.84488 18.8429 6.17284 18.9067 6.63592 18.9446C7.01481 18.9755 7.45763 18.9853 7.99881 18.9903L7.99998 4.60197ZM21.596 13.3946C21.596 14.5012 21.5964 15.3794 21.5387 16.0863C21.4874 16.7129 21.388 17.2587 21.173 17.7598L21.0734 17.9719C20.6708 18.7621 20.0581 19.4234 19.3062 19.8844L18.9757 20.0696C18.4169 20.3542 17.8063 20.4763 17.0903 20.5348C16.3832 20.5925 15.5052 20.5922 14.3984 20.5922H9.19765C8.09089 20.5922 7.21281 20.5925 6.50584 20.5348C5.87912 20.4836 5.33356 20.383 4.83241 20.168L4.62029 20.0696C3.8302 19.667 3.16881 19.0541 2.70779 18.3023L2.52264 17.9719C2.23797 17.413 2.11593 16.8025 2.0574 16.0863C1.99965 15.3794 1.99998 14.5012 1.99998 13.3946V10.1977C1.99998 9.09093 1.99965 8.21284 2.0574 7.50588C2.11592 6.78977 2.23798 6.17925 2.52264 5.62033L2.70779 5.28987C3.16881 4.53806 3.83018 3.92526 4.62029 3.52267L4.83241 3.42306C5.33345 3.20818 5.87928 3.10864 6.50584 3.05743C7.21281 2.99968 8.09089 3.00001 9.19765 3.00001H14.3984C15.5052 3.00001 16.3832 2.99968 17.0903 3.05743C17.8063 3.11595 18.4169 3.23801 18.9757 3.52267L19.3062 3.70784C20.058 4.16884 20.6708 4.83021 21.0734 5.62033L21.173 5.83244C21.388 6.33348 21.4874 6.87931 21.5387 7.50588C21.5964 8.21284 21.596 9.09093 21.596 10.1977V13.3946ZM9.5949 18.9961H14.3984C15.5315 18.9961 16.3333 18.9957 16.9602 18.9446C17.5777 18.8941 17.955 18.7979 18.2515 18.6469L18.4718 18.5239C18.9737 18.2162 19.382 17.7749 19.6507 17.2477L19.7539 17.0074C19.8469 16.7473 19.9106 16.4194 19.9484 15.9562C19.9997 15.3293 20 14.5275 20 13.3946V10.1977C20 9.06468 19.9997 8.26284 19.9484 7.63595C19.9106 7.17285 19.8468 6.84491 19.7539 6.58479L19.6507 6.34455C19.382 5.81723 18.9736 5.37604 18.4718 5.06838L18.2515 4.94533C17.955 4.79422 17.5778 4.69814 16.9602 4.64768C16.3333 4.59646 15.5315 4.59611 14.3984 4.59611H9.5949L9.59608 4.60197L9.5949 18.9961Z" fill="white"/>
</svg>
